PathFileType	4	(X/Y/Z)	C:\Users\italobelli\Desktop\GitHub\PTbot_officialCBL\Personal_Results\FLX02_noisy2.trc
DataRate	CameraRate	NumFrames	NumMarkers	Units	OrigDataRate	OrigDataStartFrame	OrigNumFrames
106.125000	106.125000	51	9	m	106.125000	319	850
Frame#	Time		gu		centelbow		EpL		centpxt8		centijc7		ij		ts		aa		ai
			X1	Y1	Z1	X2	Y2	Z2	X3	Y3	Z3	X4	Y4	Z4	X5	Y5	Z5	X6	Y6	Z6	X7	Y7	Z7	X8	Y8	Z8	X9	Y9	Z9

319	2.9965	-0.091476	0.055919	0.11174	0.048817	0.23523	0.20437	0.023809	0.25409	0.19669	-0.046816	-0.15316	-0.008669	-0.046816	0.031938	-0.008669	0	0	0	-0.15096	-0.016583	0.059823	-0.1188	0.078939	0.12363	-0.12285	-0.079708	0.14988
320	3.0059	-0.091672	0.056036	0.11147	0.047312	0.23624	0.20397	0.022202	0.25486	0.19613	-0.046816	-0.15316	-0.008669	-0.046816	0.031938	-0.008669	0	0	0	-0.15086	-0.016743	0.059761	-0.11911	0.079044	0.12329	-0.12264	-0.079463	0.15007
321	3.0153	-0.091868	0.056152	0.1112	0.045801	0.23723	0.20356	0.02059	0.25561	0.19556	-0.046816	-0.15316	-0.008669	-0.046816	0.031938	-0.008669	0	0	0	-0.15074	-0.016905	0.059703	-0.11943	0.079146	0.12296	-0.12241	-0.079216	0.15026
322	3.0247	-0.092065	0.05627	0.11093	0.044279	0.23822	0.20316	0.018972	0.25636	0.19499	-0.046816	-0.15316	-0.008669	-0.046816	0.031938	-0.008669	0	0	0	-0.15061	-0.017071	0.059647	-0.11975	0.079246	0.12263	-0.12217	-0.078968	0.15046
323	3.0342	-0.092261	0.056388	0.11066	0.04275	0.2392	0.20275	0.017347	0.2571	0.19443	-0.046816	-0.15316	-0.008669	-0.046816	0.031938	-0.008669	0	0	0	-0.15046	-0.01724	0.059594	-0.12006	0.079345	0.1223	-0.12192	-0.07872	0.15065
324	3.0436	-0.092458	0.056507	0.11039	0.041213	0.24017	0.20234	0.015717	0.25784	0.19387	-0.046816	-0.15316	-0.008669	-0.046816	0.031938	-0.008669	0	0	0	-0.15029	-0.017412	0.059544	-0.12039	0.079442	0.12197	-0.12165	-0.07847	0.15085
325	3.053	-0.092655	0.056626	0.11013	0.03967	0.24112	0.20193	0.014084	0.25857	0.1933	-0.046816	-0.15316	-0.008669	-0.046816	0.031938	-0.008669	0	0	0	-0.15011	-0.017587	0.059497	-0.12071	0.079537	0.12164	-0.12137	-0.07822	0.15104
326	3.0624	-0.092852	0.056745	0.10987	0.038122	0.24206	0.20152	0.012448	0.25929	0.19274	-0.046816	-0.15316	-0.008669	-0.046816	0.031938	-0.008669	0	0	0	-0.14992	-0.017765	0.059452	-0.12104	0.07963	0.12131	-0.12108	-0.077969	0.15124
327	3.0718	-0.093049	0.056865	0.1096	0.03657	0.243	0.20111	0.01081	0.26	0.19218	-0.046816	-0.15316	-0.008669	-0.046816	0.031938	-0.008669	0	0	0	-0.14971	-0.017944	0.059409	-0.12136	0.079722	0.12098	-0.12077	-0.077718	0.15144
328	3.0813	-0.093245	0.056985	0.10935	0.035015	0.24392	0.2007	0.0091717	0.2607	0.19163	-0.046816	-0.15316	-0.008669	-0.046816	0.031938	-0.008669	0	0	0	-0.14948	-0.018126	0.059368	-0.12169	0.079812	0.12066	-0.12046	-0.077466	0.15164
329	3.0907	-0.09344	0.057105	0.10909	0.033458	0.24483	0.20029	0.0075339	0.26139	0.19107	-0.046816	-0.15316	-0.008669	-0.046816	0.031938	-0.008669	0	0	0	-0.14925	-0.018309	0.059329	-0.12202	0.079901	0.12033	-0.12014	-0.077215	0.15184
330	3.1001	-0.093635	0.057225	0.10884	0.0319	0.24572	0.19988	0.0058977	0.26208	0.19052	-0.046816	-0.15316	-0.008669	-0.046816	0.031938	-0.008669	0	0	0	-0.149	-0.018494	0.059293	-0.12235	0.079988	0.12001	-0.1198	-0.076963	0.15204
331	3.1095	-0.093829	0.057344	0.10859	0.030343	0.2466	0.19947	0.0042642	0.26275	0.18998	-0.046816	-0.15316	-0.008669	-0.046816	0.031938	-0.008669	0	0	0	-0.14874	-0.018681	0.059258	-0.12268	0.080073	0.11969	-0.11946	-0.076712	0.15224
332	3.119	-0.094022	0.057464	0.10834	0.028787	0.24747	0.19907	0.0026345	0.26341	0.18943	-0.046816	-0.15316	-0.008669	-0.046816	0.031938	-0.008669	0	0	0	-0.14846	-0.018868	0.059225	-0.12301	0.080157	0.11937	-0.11911	-0.07646	0.15244
333	3.1284	-0.094213	0.057583	0.10809	0.027234	0.24832	0.19866	0.0010097	0.26407	0.1889	-0.046816	-0.15316	-0.008669	-0.046816	0.031938	-0.008669	0	0	0	-0.14818	-0.019057	0.059194	-0.12335	0.08024	0.11906	-0.11875	-0.07621	0.15264
334	3.1378	-0.094404	0.057702	0.10785	0.025684	0.24916	0.19826	-0.00060924	0.26471	0.18836	-0.046816	-0.15316	-0.008669	-0.046816	0.031938	-0.008669	0	0	0	-0.14789	-0.019246	0.059164	-0.12368	0.080321	0.11874	-0.11839	-0.075959	0.15284
335	3.1472	-0.094592	0.05782	0.10761	0.024139	0.24999	0.19787	-0.0022211	0.26534	0.18784	-0.046816	-0.15316	-0.008669	-0.046816	0.031938	-0.008669	0	0	0	-0.14759	-0.019436	0.059136	-0.12401	0.080401	0.11843	-0.11802	-0.075709	0.15304
336	3.1567	-0.094779	0.057937	0.10737	0.0226	0.2508	0.19748	-0.0038248	0.26596	0.18731	-0.046816	-0.15316	-0.008669	-0.046816	0.031938	-0.008669	0	0	0	-0.14729	-0.019626	0.059109	-0.12433	0.080479	0.11812	-0.11765	-0.075461	0.15323
337	3.1661	-0.094965	0.058054	0.10714	0.021068	0.25159	0.19709	-0.0054194	0.26656	0.1868	-0.046816	-0.15316	-0.008669	-0.046816	0.031938	-0.008669	0	0	0	-0.14697	-0.019816	0.059083	-0.12466	0.080556	0.11781	-0.11727	-0.075213	0.15343
338	3.1755	-0.095148	0.05817	0.10691	0.019544	0.25237	0.1967	-0.0070036	0.26716	0.18629	-0.046816	-0.15316	-0.008669	-0.046816	0.031938	-0.008669	0	0	0	-0.14665	-0.020006	0.059058	-0.12499	0.080632	0.11751	-0.11688	-0.074966	0.15363
339	3.1849	-0.095329	0.058285	0.10668	0.018029	0.25313	0.19633	-0.0085765	0.26774	0.18579	-0.046816	-0.15316	-0.008669	-0.046816	0.031938	-0.008669	0	0	0	-0.14632	-0.020195	0.059035	-0.12531	0.080707	0.11721	-0.11649	-0.07472	0.15382
340	3.1943	-0.095508	0.058399	0.10646	0.016523	0.25388	0.19595	-0.010137	0.26831	0.18529	-0.046816	-0.15316	-0.008669	-0.046816	0.031938	-0.008669	0	0	0	-0.14599	-0.020384	0.059012	-0.12563	0.08078	0.11691	-0.1161	-0.074476	0.15401
341	3.2038	-0.095684	0.058511	0.10623	0.01503	0.2546	0.19558	-0.011684	0.26886	0.18481	-0.046816	-0.15316	-0.008669	-0.046816	0.031938	-0.008669	0	0	0	-0.14565	-0.020572	0.05899	-0.12595	0.080852	0.11662	-0.11571	-0.074233	0.1542
342	3.2132	-0.095858	0.058623	0.10602	0.013548	0.25532	0.19522	-0.013216	0.2694	0.18433	-0.046816	-0.15316	-0.008669	-0.046816	0.031938	-0.008669	0	0	0	-0.14531	-0.020759	0.058969	-0.12627	0.080924	0.11632	-0.11532	-0.073991	0.15439
343	3.2226	-0.09603	0.058733	0.1058	0.01208	0.25601	0.19487	-0.014733	0.26993	0.18386	-0.046816	-0.15316	-0.008669	-0.046816	0.031938	-0.008669	0	0	0	-0.14496	-0.020945	0.058948	-0.12658	0.080993	0.11604	-0.11492	-0.073752	0.15458
344	3.232	-0.096198	0.058842	0.10559	0.010626	0.25668	0.19452	-0.016232	0.27044	0.1834	-0.046816	-0.15316	-0.008669	-0.046816	0.031938	-0.008669	0	0	0	-0.14462	-0.021129	0.058928	-0.12689	0.081062	0.11575	-0.11453	-0.073514	0.15477
345	3.2415	-0.096363	0.05895	0.10538	0.009188	0.25734	0.19418	-0.017714	0.27094	0.18295	-0.046816	-0.15316	-0.008669	-0.046816	0.031938	-0.008669	0	0	0	-0.14427	-0.021311	0.058908	-0.1272	0.08113	0.11547	-0.11413	-0.073278	0.15495
346	3.2509	-0.096525	0.059055	0.10518	0.0077666	0.25798	0.19385	-0.019177	0.27142	0.1825	-0.046816	-0.15316	-0.008669	-0.046816	0.031938	-0.008669	0	0	0	-0.14392	-0.021492	0.058888	-0.1275	0.081197	0.11519	-0.11374	-0.073045	0.15513
347	3.2603	-0.096684	0.059159	0.10498	0.0063629	0.25859	0.19353	-0.02062	0.27189	0.18207	-0.046816	-0.15316	-0.008669	-0.046816	0.031938	-0.008669	0	0	0	-0.14356	-0.02167	0.058869	-0.1278	0.081263	0.11492	-0.11335	-0.072814	0.15531
348	3.2697	-0.096839	0.059262	0.10478	0.004978	0.25919	0.19321	-0.022041	0.27234	0.18165	-0.046816	-0.15316	-0.008669	-0.046816	0.031938	-0.008669	0	0	0	-0.14321	-0.021846	0.05885	-0.1281	0.081328	0.11465	-0.11296	-0.072585	0.15549
349	3.2792	-0.09699	0.059362	0.10459	0.003613	0.25977	0.19291	-0.023441	0.27277	0.18124	-0.046816	-0.15316	-0.008669	-0.046816	0.031938	-0.008669	0	0	0	-0.14286	-0.022019	0.05883	-0.12839	0.081391	0.11438	-0.11258	-0.072359	0.15566
350	3.2886	-0.097138	0.05946	0.1044	0.0022691	0.26033	0.19261	-0.024817	0.27319	0.18085	-0.046816	-0.15316	-0.008669	-0.046816	0.031938	-0.008669	0	0	0	-0.14251	-0.022189	0.05881	-0.12867	0.081455	0.11412	-0.1122	-0.072135	0.15583
351	3.298	-0.097282	0.059556	0.10421	0.0009472	0.26086	0.19232	-0.026169	0.27359	0.18046	-0.046816	-0.15316	-0.008669	-0.046816	0.031938	-0.008669	0	0	0	-0.14217	-0.022357	0.05879	-0.12895	0.081517	0.11386	-0.11182	-0.071914	0.156
352	3.3074	-0.097421	0.05965	0.10403	-0.00035149	0.26138	0.19205	-0.027495	0.27397	0.18009	-0.046816	-0.15316	-0.008669	-0.046816	0.031938	-0.008669	0	0	0	-0.14182	-0.022521	0.05877	-0.12922	0.081578	0.11361	-0.11145	-0.071697	0.15616
353	3.3168	-0.097557	0.059742	0.10386	-0.0016259	0.26187	0.19178	-0.028795	0.27433	0.17972	-0.046816	-0.15316	-0.008669	-0.046816	0.031938	-0.008669	0	0	0	-0.14148	-0.022681	0.058749	-0.12949	0.081639	0.11336	-0.11108	-0.071482	0.15632
354	3.3263	-0.097688	0.059831	0.10368	-0.002875	0.26234	0.19153	-0.030067	0.27468	0.17938	-0.046816	-0.15316	-0.008669	-0.046816	0.031938	-0.008669	0	0	0	-0.14114	-0.022838	0.058728	-0.12975	0.081698	0.11312	-0.11072	-0.07127	0.15647
355	3.3357	-0.097814	0.059918	0.10351	-0.0040976	0.26279	0.19129	-0.03131	0.27501	0.17904	-0.046816	-0.15316	-0.008669	-0.046816	0.031938	-0.008669	0	0	0	-0.14081	-0.022991	0.058705	-0.13001	0.081758	0.11288	-0.11037	-0.071062	0.15663
356	3.3451	-0.097936	0.060003	0.10335	-0.0052927	0.26322	0.19106	-0.032523	0.27532	0.17872	-0.046816	-0.15316	-0.008669	-0.046816	0.031938	-0.008669	0	0	0	-0.14049	-0.02314	0.058682	-0.13026	0.081816	0.11265	-0.11002	-0.070858	0.15677
357	3.3545	-0.098053	0.060084	0.10319	-0.0064592	0.26362	0.19084	-0.033706	0.2756	0.17841	-0.046816	-0.15316	-0.008669	-0.046816	0.031938	-0.008669	0	0	0	-0.14017	-0.023284	0.058658	-0.1305	0.081874	0.11242	-0.10969	-0.070657	0.15692
358	3.364	-0.098164	0.060163	0.10304	-0.007596	0.264	0.19063	-0.034856	0.27587	0.17812	-0.046816	-0.15316	-0.008669	-0.046816	0.031938	-0.008669	0	0	0	-0.13985	-0.023424	0.058633	-0.13073	0.081931	0.1122	-0.10936	-0.07046	0.15706
359	3.3734	-0.098271	0.060239	0.10289	-0.008702	0.26435	0.19044	-0.035974	0.27612	0.17785	-0.046816	-0.15316	-0.008669	-0.046816	0.031938	-0.008669	0	0	0	-0.13955	-0.023558	0.058607	-0.13096	0.081988	0.11198	-0.10904	-0.070267	0.15719
360	3.3828	-0.098372	0.060312	0.10274	-0.0097761	0.26468	0.19026	-0.037057	0.27635	0.17759	-0.046816	-0.15316	-0.008669	-0.046816	0.031938	-0.008669	0	0	0	-0.13925	-0.023688	0.058579	-0.13118	0.082044	0.11177	-0.10874	-0.070077	0.15732
361	3.3922	-0.098468	0.060382	0.1026	-0.010817	0.26499	0.1901	-0.038105	0.27656	0.17734	-0.046816	-0.15316	-0.008669	-0.046816	0.031938	-0.008669	0	0	0	-0.13896	-0.023813	0.05855	-0.13139	0.082099	0.11156	-0.10844	-0.069892	0.15745
362	3.4016	-0.098558	0.060448	0.10247	-0.011824	0.26527	0.18995	-0.039117	0.27675	0.17711	-0.046816	-0.15316	-0.008669	-0.046816	0.031938	-0.008669	0	0	0	-0.13868	-0.023931	0.05852	-0.1316	0.082154	0.11136	-0.10816	-0.069712	0.15757
363	3.4111	-0.098642	0.060512	0.10234	-0.012796	0.26553	0.18982	-0.040091	0.27691	0.1769	-0.046816	-0.15316	-0.008669	-0.046816	0.031938	-0.008669	0	0	0	-0.13841	-0.024045	0.058488	-0.13179	0.082209	0.11116	-0.10788	-0.069535	0.15769
364	3.4205	-0.098721	0.060572	0.10221	-0.013732	0.26576	0.1897	-0.041027	0.27705	0.1767	-0.046816	-0.15316	-0.008669	-0.046816	0.031938	-0.008669	0	0	0	-0.13816	-0.024152	0.058454	-0.13197	0.082263	0.11098	-0.10762	-0.069364	0.1578
365	3.4299	-0.098793	0.060628	0.10209	-0.014631	0.26596	0.1896	-0.041923	0.27718	0.17653	-0.046816	-0.15316	-0.008669	-0.046816	0.031938	-0.008669	0	0	0	-0.13791	-0.024253	0.058419	-0.13215	0.082316	0.11079	-0.10738	-0.069197	0.1579
366	3.4393	-0.098859	0.060681	0.10197	-0.015491	0.26614	0.18951	-0.042779	0.27727	0.17637	-0.046816	-0.15316	-0.008669	-0.046816	0.031938	-0.008669	0	0	0	-0.13768	-0.024347	0.058381	-0.13232	0.08237	0.11062	-0.10715	-0.069035	0.158
367	3.4488	-0.098919	0.060731	0.10186	-0.016311	0.26629	0.18944	-0.043592	0.27735	0.17623	-0.046816	-0.15316	-0.008669	-0.046816	0.031938	-0.008669	0	0	0	-0.13745	-0.024435	0.058342	-0.13247	0.082423	0.11045	-0.10693	-0.068878	0.15809
368	3.4582	-0.098972	0.060776	0.10176	-0.017091	0.26641	0.18939	-0.044363	0.2774	0.17611	-0.046816	-0.15316	-0.008669	-0.046816	0.031938	-0.008669	0	0	0	-0.13725	-0.024517	0.0583	-0.13262	0.082476	0.11028	-0.10673	-0.068726	0.15818
369	3.4676	-0.099018	0.060818	0.10166	-0.01783	0.2665	0.18935	-0.04509	0.27743	0.176	-0.046816	-0.15316	-0.008669	-0.046816	0.031938	-0.008669	0	0	0	-0.13705	-0.024591	0.058256	-0.13276	0.082528	0.11013	-0.10655	-0.068579	0.15826
